<svg
  width="6.8791666mm"
  height="6.8791666mm"
  viewBox="0 0 6.8791666 6.8791666"
  version="1.1"
  id="svg1243"
  fill="rgba(37, 99, 235, 1)"
  inkscape:version="1.1 (c68e22c387, 2021-05-23)"
  sodipodi:docname="facebook.svg"
  xmlns:inkscape="http://www.inkscape.org/namespaces/inkscape"
  xmlns:sodipodi="http://sodipodi.sourceforge.net/DTD/sodipodi-0.dtd"
  xmlns="http://www.w3.org/2000/svg"
  xmlns:svg="http://www.w3.org/2000/svg"
>
  <g
    inkscape:label="Layer 1"
    inkscape:groupmode="layer"
    id="layer1"
    transform="translate(-48.102892,-156.23396)"
  >
    <rect
      style="fill:#ffffff;stroke-width:0.264583"
      id="rect1280"
      width="4.3252425"
      height="5.6768813"
      x="49.920509"
      y="156.97026"
    />
    <g
      id="g1249"
      transform="matrix(0.26458333,0,0,0.26458333,48.102892,156.23396)"
    >
      <path
        d="M 21.125,0 H 4.875 C 2.182,0 0,2.182 0,4.875 v 16.25 C 0,23.818 2.182,26 4.875,26 h 16.25 C 23.818,26 26,23.818 26,21.125 V 4.875 C 26,2.182 23.818,0 21.125,0 Z m -0.661,14.002 h -2.433 v 9.004 h -4.063 v -9.004 h -1.576 v -3.033 h 1.576 V 9.037 C 13.969,6.504 15.021,5 18.006,5 h 3.025 v 3.022 h -1.757 c -1.162,0 -1.238,0.433 -1.238,1.243 l -0.005,1.703 h 2.764 z"
        id="path1247"
      />
    </g>
  </g>
</svg>