<svg height="512pt" viewBox="0 0 512 512" width="512pt" fill="#FFFFFF" xmlns="http://www.w3.org/2000/svg"><path d="m324.390625 402.21875c-9.4375 0-19.570313-1.132812-30.289063-3.433594-36.027343-7.71875-75.355468-27.890625-110.746093-56.800781-35.386719-28.914063-62.964844-63.398437-77.644531-97.105469-16.105469-36.96875-15.128907-69.316406 2.742187-91.082031.519531-.625.519531-.625 31.070313-31.667969l12.214843-12.40625 67.453125 89.457032-23.8125 29c11.601563 16.039062 25.3125 33.144531 42.609375 47.277343 17.296875 14.132813 36.816407 24.167969 54.867188 32.355469l23.988281-29.210938 99.671875 50.394532-9.53125 14.054687c-23.386719 34.496094-23.386719 34.496094-23.914063 35.132813-13.011718 15.84375-33.328124 24.035156-58.679687 24.035156zm-193.09375-229.003906c-9.859375 12.519531-9.175781 34.25 1.925781 59.742187 12.820313 29.425781 37.375 59.925781 69.144532 85.878907 31.769531 25.953124 66.585937 43.957031 98.035156 50.695312 27.226562 5.835938 48.710937 2.230469 59.101562-9.878906 1.484375-2.183594 7.097656-10.457032 13.101563-19.308594l-47.824219-24.183594-23.160156 28.199219-10.410156-4.53125c-22.558594-9.824219-48.601563-21.921875-72.230469-41.222656-23.628907-19.304688-40.648438-42.390625-54.746094-62.511719l-6.503906-9.289062 23.332031-28.414063-32.339844-42.890625c-8 8.128906-15.519531 15.769531-17.425781 17.714844zm0 0"/><path d="m.335938 512 47.472656-108.066406c-31.308594-43.492188-47.808594-94.675782-47.808594-148.597656 0-68.203126 26.628906-132.324219 74.980469-180.550782 48.351562-48.226562 112.640625-74.785156 181.019531-74.785156s132.667969 26.558594 181.019531 74.785156c48.351563 48.226563 74.980469 112.347656 74.980469 180.550782 0 68.203124-26.628906 132.324218-74.980469 180.550781-48.351562 48.226562-112.640625 74.785156-181.019531 74.785156-48.816406 0-96-13.65625-136.945312-39.570313zm122.976562-74.019531 6.210938 4.195312c37.398437 25.234375 81.132812 38.578125 126.476562 38.578125 60.367188 0 117.121094-23.449218 159.808594-66.023437 42.683594-42.578125 66.191406-99.183594 66.191406-159.394531 0-60.207032-23.507812-116.816407-66.195312-159.390626-42.683594-42.574218-99.4375-66.023437-159.804688-66.023437s-117.121094 23.449219-159.804688 66.023437c-42.6875 42.574219-66.195312 99.179688-66.195312 159.390626 0 50.246093 16.226562 97.796874 46.925781 137.503906l5.425781 7.019531-27.035156 61.542969zm0 0"/></svg>