<svg height="368pt" fill="#ffffff" viewBox="0 0 368 368" width="368pt" xmlns="http://www.w3.org/2000/svg">
    <path d="m0 184c0 29.792969 7.160156 57.929688 19.785156 82.847656.101563.28125.261719.519532.398438.785156 30.511718 59.511719 92.464844 100.367188 163.816406 100.367188 71.3125 0 133.230469-40.808594 163.761719-100.273438.167969-.3125.351562-.589843.476562-.925781 12.609375-24.914062 19.761719-53.03125 19.761719-82.800781s-7.152344-57.886719-19.761719-82.792969c-.125-.335937-.308593-.613281-.476562-.925781-30.53125-59.472656-92.449219-100.28125-163.761719-100.28125-71.351562 0-133.304688 40.855469-163.816406 100.367188-.136719.265624-.296875.503906-.398438.785156-12.625 24.917968-19.785156 53.054687-19.785156 82.847656zm184-168c25.304688 0 48 32.441406 60.871094 80h-121.742188c12.871094-47.558594 35.566406-80 60.871094-80zm64.695312 96c4.136719 19.664062 6.640626 41.304688 7.121094 64h-143.640625c.488281-22.695312 2.992188-44.335938 7.121094-64zm102.898438 64h-79.691406c-.445313-22.734375-2.757813-44.289062-6.664063-64h70.320313c9.335937 19.566406 14.953125 41.175781 16.035156 64zm-16.035156 80h-70.320313c3.90625-19.710938 6.226563-41.265625 6.664063-64h79.691406c-1.082031 22.824219-6.699219 44.433594-16.035156 64zm-151.558594 96c-25.304688 0-48-32.441406-60.871094-80h121.742188c-12.871094 47.558594-35.566406 80-60.871094 80zm-64.695312-96c-4.136719-19.664062-6.640626-41.304688-7.121094-64h143.640625c-.488281 22.695312-2.992188 44.335938-7.121094 64zm-102.898438-64h79.691406c.445313 22.734375 2.757813 44.289062 6.664063 64h-70.320313c-9.335937-19.566406-14.953125-41.175781-16.035156-64zm79.691406-16h-79.691406c1.082031-22.824219 6.699219-44.433594 16.035156-64h70.320313c-3.90625 19.710938-6.226563 41.265625-6.664063 64zm-54.9375 96h65.214844c8.097656 31.742188 20.511719 57.632812 35.722656 74.496094-42.480468-10.96875-78.425781-38.089844-100.9375-74.496094zm184.75 74.496094c15.203125-16.863282 27.617188-42.753906 35.722656-74.496094h65.214844c-22.519531 36.40625-58.464844 63.527344-100.9375 74.496094zm100.929688-250.496094h-65.214844c-8.097656-31.742188-20.511719-57.632812-35.722656-74.496094 42.480468 10.96875 78.425781 38.089844 100.9375 74.496094zm-184.75-74.496094c-15.203125 16.863282-27.617188 42.753906-35.722656 74.496094h-65.214844c22.519531-36.40625 58.464844-63.527344 100.9375-74.496094zm0 0"/>
</svg>