<?xml version="1.0" encoding="UTF-8" standalone="no"?>
<!-- Created with Inkscape (http://www.inkscape.org/) -->

<svg
   width="108.80302mm"
   height="23.968391mm"
   viewBox="0 0 108.80302 23.968391"
   version="1.1"
   id="svg997"
   xmlns="http://www.w3.org/2000/svg"
   xmlns:svg="http://www.w3.org/2000/svg">
  <defs
     id="defs994">
    <clipPath
       clipPathUnits="userSpaceOnUse"
       id="clipPath868">
      <path
         d="M 0,595.28 H 841.89 V 0 H 0 Z"
         id="path866" />
    </clipPath>
  </defs>
  <g
     id="layer1"
     transform="translate(-46.126996,-154.85784)">
    <g
       id="g862"
       transform="matrix(0.35277777,0,0,-0.35277777,-47.085851,275.70148)">
      <g
         id="g864"
         clip-path="url(#clipPath868)">
        <g
           id="g870"
           transform="translate(356.6051,286.8975)">
          <path
             d="m 0,0 c -0.495,-1.37 -1.191,-2.537 -2.089,-3.502 -0.898,-0.966 -1.998,-1.729 -3.299,-2.29 -1.302,-0.562 -2.76,-0.842 -4.377,-0.842 -1.617,0 -3.076,0.28 -4.378,0.842 -1.301,0.561 -2.401,1.324 -3.298,2.29 -0.899,0.965 -1.594,2.132 -2.088,3.502 -0.494,1.368 -0.741,2.861 -0.741,4.478 0,1.616 0.247,3.108 0.741,4.478 0.494,1.368 1.189,2.536 2.088,3.501 0.897,0.965 1.997,1.729 3.298,2.29 1.302,0.561 2.761,0.842 4.378,0.842 1.617,0 3.075,-0.281 4.377,-0.842 1.301,-0.561 2.401,-1.325 3.299,-2.29 C -1.191,11.492 -0.495,10.324 0,8.956 0.492,7.586 0.74,6.094 0.74,4.478 0.74,2.861 0.492,1.368 0,0 M 0.74,15.858 H 0.605 c -1.077,1.661 -2.626,2.973 -4.646,3.939 -2.021,0.966 -4.175,1.448 -6.464,1.448 -2.47,0 -4.704,-0.427 -6.701,-1.278 -1.998,-0.855 -3.704,-2.033 -5.117,-3.537 -1.415,-1.504 -2.503,-3.277 -3.267,-5.32 -0.764,-2.043 -1.144,-4.253 -1.144,-6.632 0,-2.38 0.38,-4.58 1.144,-6.599 0.764,-2.021 1.852,-3.795 3.267,-5.321 1.413,-1.527 3.119,-2.716 5.117,-3.569 1.997,-0.851 4.231,-1.279 6.701,-1.279 2.153,0 4.252,0.471 6.296,1.414 2.042,0.942 3.647,2.267 4.814,3.974 H 0.74 v -4.579 H 6.801 V 39.428 H 0.74 Z"
             style="fill:#59595c;fill-opacity:1;fill-rule:nonzero;stroke:none"
             id="path872" />
        </g>
        <g
           id="g874"
           transform="translate(426.7389,305.2471)">
          <path
             d="m 0,0 c -1.056,0.987 -2.289,1.717 -3.703,2.188 -1.415,0.472 -2.886,0.708 -4.412,0.708 -2.469,0 -4.646,-0.529 -6.531,-1.584 -1.885,-1.054 -3.211,-2.434 -3.974,-4.14 h -0.135 v 4.916 h -6.059 v -31.919 h 6.059 v 16.43 c 0,1.84 0.226,3.435 0.674,4.782 0.449,1.347 1.078,2.458 1.886,3.332 0.807,0.877 1.751,1.516 2.828,1.92 1.078,0.405 2.244,0.606 3.502,0.606 0.943,0 1.851,-0.146 2.726,-0.437 0.876,-0.293 1.651,-0.764 2.325,-1.415 0.672,-0.652 1.211,-1.504 1.615,-2.559 0.404,-1.055 0.606,-2.322 0.606,-3.805 v -18.854 h 6.061 v 20.538 c 0,2.109 -0.315,3.939 -0.943,5.488 C 1.896,-2.255 1.055,-0.987 0,0"
             style="fill:#59595c;fill-opacity:1;fill-rule:nonzero;stroke:none"
             id="path876" />
        </g>
        <g
           id="g878"
           transform="translate(448.3219,280.2637)">
          <path
             d="m 0,0 c -1.169,0 -2.054,0.212 -2.66,0.64 -0.606,0.426 -1.056,0.987 -1.348,1.683 -0.292,0.696 -0.46,1.483 -0.505,2.358 -0.044,0.875 -0.066,1.761 -0.066,2.66 v 14.477 h 8.686 v 5.253 h -8.686 v 8.956 h -6.062 v -8.956 h -10.663 c 0.431,-0.298 0.849,-0.615 1.236,-0.977 1.14,-1.069 2.051,-2.441 2.733,-4.117 0.021,-0.051 0.033,-0.107 0.054,-0.159 h 6.64 V 5.186 c 0,-1.302 0.057,-2.592 0.169,-3.873 0.112,-1.28 0.472,-2.435 1.078,-3.468 0.606,-1.033 1.549,-1.874 2.828,-2.525 1.28,-0.65 3.086,-0.976 5.42,-0.976 0.629,0 1.516,0.078 2.661,0.235 1.145,0.157 2.076,0.439 2.794,0.842 V 0.943 C 3.68,0.583 2.984,0.337 2.222,0.202 1.458,0.067 0.718,0 0,0"
             style="fill:#59595c;fill-opacity:1;fill-rule:nonzero;stroke:none"
             id="path880" />
        </g>
        <g
           id="g882"
           transform="translate(459.1373,322.0684)">
          <path
             d="m 0,0 c -1.601,0 -2.979,-0.577 -4.136,-1.734 -1.155,-1.157 -1.733,-2.536 -1.733,-4.136 0,-1.601 0.578,-2.979 1.733,-4.136 1.157,-1.156 2.535,-1.733 4.136,-1.733 1.602,0 2.98,0.577 4.136,1.733 1.156,1.157 1.734,2.535 1.734,4.136 0,1.6 -0.578,2.979 -1.734,4.136 C 2.98,-0.577 1.602,0 0,0"
             style="fill:#59595c;fill-opacity:1;fill-rule:nonzero;stroke:none"
             id="path884" />
        </g>
        <path
           d="m 456.671,275.416 h 6.061 v 31.919 h -6.061 z"
           style="fill:#59595c;fill-opacity:1;fill-rule:nonzero;stroke:none"
           id="path886" />
        <g
           id="g888"
           transform="translate(487.9156,281.1729)">
          <path
             d="m 0,0 c -1.212,-0.605 -2.671,-0.909 -4.377,-0.909 -1.572,0 -2.985,0.28 -4.242,0.842 -1.257,0.56 -2.335,1.336 -3.233,2.323 -0.898,0.987 -1.593,2.143 -2.086,3.469 -0.496,1.323 -0.742,2.727 -0.742,4.209 0,1.48 0.213,2.905 0.64,4.274 0.427,1.369 1.055,2.581 1.886,3.638 0.83,1.054 1.862,1.884 3.097,2.491 1.235,0.605 2.682,0.909 4.343,0.909 1.706,0 3.176,-0.304 4.411,-0.909 1.235,-0.607 2.412,-1.493 3.535,-2.66 l 4.58,4.176 c -1.572,1.705 -3.423,2.973 -5.555,3.803 -2.133,0.831 -4.367,1.247 -6.7,1.247 -2.515,0 -4.794,-0.416 -6.836,-1.247 -2.043,-0.83 -3.794,-1.985 -5.253,-3.467 -1.459,-1.482 -2.592,-3.255 -3.401,-5.32 -0.807,-2.065 -1.212,-4.333 -1.212,-6.802 0,-2.469 0.405,-4.724 1.212,-6.767 0.809,-2.043 1.954,-3.794 3.436,-5.252 1.48,-1.46 3.242,-2.593 5.285,-3.402 2.043,-0.807 4.299,-1.211 6.769,-1.211 2.333,0 4.545,0.381 6.631,1.144 2.089,0.764 3.917,2.021 5.49,3.772 L 3.367,2.66 C 2.334,1.492 1.213,0.606 0,0"
             style="fill:#59595c;fill-opacity:1;fill-rule:nonzero;stroke:none"
             id="path890" />
        </g>
        <g
           id="g892"
           transform="translate(517.2096,288.748)">
          <path
             d="m 0,0 c 0,-1.076 -0.158,-2.166 -0.472,-3.266 -0.315,-1.099 -0.832,-2.098 -1.549,-2.996 -0.718,-0.899 -1.662,-1.628 -2.829,-2.189 -1.168,-0.561 -2.582,-0.842 -4.242,-0.842 -2.11,0 -3.782,0.405 -5.016,1.214 -1.236,0.807 -1.853,2.13 -1.853,3.972 0,1.256 0.393,2.29 1.179,3.097 0.785,0.809 1.795,1.438 3.03,1.887 1.234,0.448 2.604,0.75 4.107,0.908 1.504,0.157 2.974,0.236 4.412,0.236 L 0,2.021 Z M 5.655,-7.541 V 8.755 c 0,1.391 -0.258,2.727 -0.774,4.007 -0.517,1.279 -1.313,2.413 -2.391,3.4 -1.077,0.987 -2.457,1.774 -4.14,2.358 -1.684,0.583 -3.694,0.875 -6.028,0.875 -2.245,0 -4.49,-0.394 -6.734,-1.179 -2.245,-0.785 -4.22,-1.964 -5.926,-3.535 l 3.637,-3.771 c 0.539,0.403 1.099,0.829 1.683,1.279 0.583,0.449 1.235,0.841 1.953,1.178 0.718,0.338 1.515,0.617 2.39,0.842 0.876,0.225 1.897,0.337 3.065,0.337 1.301,0 2.424,-0.192 3.366,-0.572 0.943,-0.382 1.728,-0.899 2.357,-1.549 0.629,-0.651 1.1,-1.381 1.415,-2.189 C -0.158,9.429 0,8.62 0,7.812 V 6.465 h -4.445 c -2.424,0 -4.703,-0.191 -6.835,-0.572 -2.133,-0.382 -3.997,-1.01 -5.589,-1.885 -1.595,-0.877 -2.853,-2.011 -3.772,-3.401 -0.92,-1.391 -1.38,-3.121 -1.38,-5.184 0,-1.573 0.292,-2.953 0.875,-4.143 0.583,-1.19 1.381,-2.188 2.39,-2.997 1.012,-0.807 2.19,-1.414 3.535,-1.818 1.348,-0.403 2.762,-0.606 4.244,-0.606 2.424,0 4.556,0.428 6.397,1.28 1.841,0.852 3.434,2.312 4.781,4.377 h 0.135 c 0,-1.616 0.067,-3.233 0.202,-4.848 h 5.387 c -0.091,0.852 -0.157,1.751 -0.202,2.692 -0.045,0.944 -0.068,1.976 -0.068,3.099"
             style="fill:#59595c;fill-opacity:1;fill-rule:nonzero;stroke:none"
             id="path894" />
        </g>
        <g
           id="g896"
           transform="translate(565.8424,286.8975)">
          <path
             d="m 0,0 c -0.494,-1.37 -1.19,-2.537 -2.088,-3.502 -0.898,-0.966 -1.998,-1.729 -3.3,-2.29 -1.302,-0.562 -2.76,-0.842 -4.376,-0.842 -1.617,0 -3.076,0.28 -4.378,0.842 -1.302,0.561 -2.402,1.324 -3.299,2.29 -0.899,0.965 -1.594,2.132 -2.087,3.502 -0.495,1.368 -0.742,2.861 -0.742,4.478 0,1.616 0.247,3.108 0.742,4.478 0.493,1.368 1.188,2.536 2.087,3.501 0.897,0.965 1.997,1.729 3.299,2.29 1.302,0.561 2.761,0.842 4.378,0.842 1.616,0 3.074,-0.281 4.376,-0.842 1.302,-0.561 2.402,-1.325 3.3,-2.29 C -1.19,11.492 -0.494,10.324 0,8.956 0.493,7.586 0.741,6.094 0.741,4.478 0.741,2.861 0.493,1.368 0,0 M 0.741,39.428 V 15.858 H 0.606 c -1.078,1.661 -2.627,2.973 -4.647,3.939 -2.021,0.966 -4.174,1.448 -6.464,1.448 -2.47,0 -4.704,-0.427 -6.701,-1.278 -1.998,-0.855 -3.703,-2.033 -5.117,-3.537 -1.414,-1.504 -2.503,-3.277 -3.266,-5.32 -0.764,-2.043 -1.145,-4.253 -1.145,-6.632 0,-2.38 0.381,-4.58 1.145,-6.599 0.763,-2.021 1.852,-3.795 3.266,-5.321 1.414,-1.527 3.119,-2.716 5.117,-3.569 1.997,-0.851 4.231,-1.279 6.701,-1.279 2.154,0 4.253,0.471 6.296,1.414 2.042,0.942 3.647,2.267 4.815,3.974 h 0.135 v -4.579 h 6.06 v 50.909 z"
             style="fill:#59595c;fill-opacity:1;fill-rule:nonzero;stroke:none"
             id="path898" />
        </g>
        <g
           id="g900"
           transform="translate(546.0934,307.6309)">
          <path
             d="m 0,0 0.004,0.108 c -0.808,0.269 -1.706,0.404 -2.693,0.404 -0.989,0 -1.977,-0.146 -2.963,-0.438 -0.989,-0.293 -1.898,-0.684 -2.728,-1.178 -0.831,-0.495 -1.583,-1.089 -2.256,-1.785 -0.674,-0.696 -1.212,-1.471 -1.616,-2.323 h -0.135 v 4.916 h -6.06 v -31.919 h 6.06 v 16.027 c 0,3.501 0.785,6.083 2.358,7.744 0.661,0.699 1.453,1.241 2.361,1.647 0.643,1.061 1.381,2.043 2.223,2.939 C -3.927,-2.243 -2.103,-0.967 0,0"
             style="fill:#59595c;fill-opacity:1;fill-rule:nonzero;stroke:none"
             id="path902" />
        </g>
        <g
           id="g904"
           transform="translate(395.1227,302.7891)">
          <path
             d="m 0,0 c -1.257,1.593 -2.861,2.884 -4.815,3.872 -1.954,0.986 -4.344,1.482 -7.171,1.482 -2.38,0 -4.579,-0.427 -6.6,-1.279 -2.019,-0.854 -3.761,-2.033 -5.219,-3.537 -1.459,-1.504 -2.604,-3.276 -3.433,-5.319 -0.832,-2.043 -1.247,-4.253 -1.247,-6.633 0,-2.38 0.381,-4.591 1.145,-6.633 0.763,-2.043 1.852,-3.816 3.266,-5.32 1.414,-1.504 3.141,-2.683 5.185,-3.535 2.042,-0.852 4.321,-1.28 6.834,-1.28 6.062,0 10.776,2.177 14.143,6.532 l -4.579,3.502 c -1.169,-1.437 -2.447,-2.592 -3.839,-3.468 -1.393,-0.876 -3.03,-1.313 -4.916,-1.313 -1.393,0 -2.738,0.224 -4.04,0.672 -1.303,0.449 -2.447,1.078 -3.435,1.887 -0.988,0.808 -1.785,1.785 -2.39,2.929 -0.322,0.606 -0.551,1.249 -0.702,1.923 -0.461,1.36 -0.724,2.865 -0.724,4.455 0,4.52 2.074,8.387 5.017,10.001 0.416,0.264 0.852,0.51 1.325,0.726 1.234,0.561 2.592,0.841 4.074,0.841 1.525,0 2.862,-0.235 4.006,-0.707 1.145,-0.472 2.098,-1.122 2.862,-1.953 0.764,-0.831 1.336,-1.808 1.718,-2.928 0.38,-1.124 0.595,-2.358 0.639,-3.705 h -7.942 l -0.058,-4.848 H 3.568 v 2.155 c 0,2.064 -0.28,4.096 -0.84,6.093 C 2.166,-3.39 1.256,-1.594 0,0"
             style="fill:#59595c;fill-opacity:1;fill-rule:nonzero;stroke:none"
             id="path906" />
        </g>
        <g
           id="g908"
           transform="translate(287.8844,336.2969)">
          <path
             d="m 0,0 c -9.599,0 -17.406,-7.809 -17.406,-17.407 0,-9.598 7.807,-17.406 17.406,-17.406 h 27.606 c 9.598,0 17.406,7.808 17.406,17.406 C 45.012,-7.809 37.204,0 27.606,0 Z M 27.606,-41.066 H 0 c -13.046,0 -23.659,10.613 -23.659,23.659 0,13.046 10.613,23.659 23.659,23.659 h 27.606 c 13.045,0 23.659,-10.613 23.659,-23.659 0,-13.046 -10.614,-23.659 -23.659,-23.659"
             style="fill:#8bb53c;fill-opacity:1;fill-rule:nonzero;stroke:none"
             id="path910" />
        </g>
        <g
           id="g912"
           transform="translate(309.6901,311.7607)">
          <path
             d="m 0,0 c -1.979,1.243 -3.356,3.184 -3.877,5.464 -0.52,2.279 -0.122,4.626 1.121,6.605 1.243,1.98 3.184,3.357 5.463,3.877 0.653,0.15 1.312,0.224 1.966,0.224 1.627,0 3.227,-0.457 4.639,-1.345 1.979,-1.243 3.357,-3.183 3.876,-5.464 C 14.265,4.656 11.311,-0.046 6.605,-1.121 4.327,-1.64 1.98,-1.244 0,0 m 11.011,-6.803 c -0.043,0.189 -0.107,0.367 -0.182,0.539 6.375,2.876 10.072,9.945 8.456,17.018 -0.892,3.907 -3.253,7.234 -6.647,9.366 -3.392,2.131 -7.411,2.816 -11.323,1.922 -3.908,-0.893 -7.234,-3.253 -9.366,-6.647 -2.131,-3.394 -2.814,-7.416 -1.923,-11.324 0.893,-3.907 3.254,-7.234 6.649,-9.366 2.421,-1.52 5.162,-2.305 7.952,-2.305 0.135,0 0.269,0.02 0.404,0.024 0.006,-0.191 0.028,-0.384 0.072,-0.576 l 5.757,-25.21 c 0.372,-1.632 1.997,-2.653 3.629,-2.28 1.632,0.373 2.653,1.997 2.28,3.629 z"
             style="fill:#59595c;fill-opacity:1;fill-rule:nonzero;stroke:none"
             id="path914" />
        </g>
      </g>
    </g>
  </g>
</svg>
